<?xml version="1.0" standalone="no"?>
<!DOCTYPE svg PUBLIC "-//W3C//DTD SVG 20010904//EN"
 "http://www.w3.org/TR/2001/REC-SVG-20010904/DTD/svg10.dtd">
<svg version="1.0" xmlns="http://www.w3.org/2000/svg"
 width="360.000000pt" height="360.000000pt" viewBox="0 0 360.000000 360.000000"
 preserveAspectRatio="xMidYMid meet">

<g transform="translate(0.000000,360.000000) scale(0.100000,-0.100000)"
fill="#000000" stroke="none">
<path d="M1387 3246 c-32 -12 -70 -34 -85 -49 l-27 -27 -5 -553 c-4 -482 -7
-552 -20 -552 -37 0 -54 -55 -36 -118 8 -28 8 -28 -14 -15 -16 9 -24 10 -27 2
-13 -36 -30 -47 -59 -37 -23 7 -30 16 -32 41 -3 29 -6 32 -38 32 -29 0 -34 -4
-34 -22 0 -31 -10 -44 -40 -51 -19 -5 -29 -1 -45 19 -19 23 -23 24 -48 13 -31
-14 -32 -18 -15 -54 10 -22 9 -29 -9 -47 -20 -19 -25 -20 -53 -8 -27 11 -33
11 -42 -1 -7 -11 -11 -11 -15 -1 -6 17 -57 42 -83 42 -11 0 -32 -11 -46 -25
-14 -14 -29 -25 -34 -25 -18 0 -40 -45 -39 -80 0 -33 17 -89 18 -62 1 6 7 12
15 12 7 0 25 9 40 21 25 20 28 20 45 4 15 -12 20 -13 24 -3 2 7 8 10 12 5 5
-4 2 -18 -5 -32 -16 -29 -16 -28 40 -58 46 -24 67 -64 51 -96 -5 -9 -11 -31
-14 -48 -7 -36 6 -43 45 -22 17 9 24 7 41 -10 18 -17 19 -24 9 -46 -17 -36
-16 -38 18 -58 28 -17 29 -17 39 1 6 11 7 22 4 26 -6 6 34 46 47 46 3 0 12
-16 20 -35 11 -28 18 -34 33 -29 17 5 18 2 12 -25 -5 -26 -4 -30 9 -25 12 5
16 21 16 65 0 32 1 59 3 59 2 0 26 -7 53 -15 42 -12 52 -20 61 -47 16 -48 27
-127 14 -108 -5 8 -7 18 -5 22 3 4 0 8 -5 8 -6 0 -11 18 -11 39 0 22 -5 43
-11 47 -8 5 -10 -4 -7 -29 l4 -36 -28 32 c-32 38 -37 28 -7 -14 l20 -29 -27
10 c-15 6 -30 8 -33 4 -3 -4 0 -9 7 -11 6 -3 9 -10 6 -15 -4 -7 -2 -8 5 -4 16
11 61 -2 61 -16 0 -9 -3 -9 -12 0 -15 15 -38 16 -38 1 0 -5 5 -7 12 -3 7 4 8
3 4 -4 -7 -12 -36 -5 -49 12 -4 6 -7 -5 -6 -24 0 -19 0 -48 -1 -65 -1 -27 -2
-28 -11 -10 -5 11 -21 25 -34 31 -23 11 -24 11 -14 -9 10 -17 9 -19 -7 -13
-15 6 -17 5 -6 -5 6 -7 12 -22 12 -33 0 -17 -3 -15 -16 9 -10 20 -14 43 -10
68 4 25 3 36 -4 32 -5 -3 -10 -16 -10 -28 -1 -19 -3 -18 -14 8 -7 17 -20 36
-29 44 -21 17 -22 4 -3 -18 15 -17 48 -103 41 -109 -2 -2 -6 6 -10 17 -7 24
-25 28 -25 6 0 -8 4 -15 9 -15 5 0 11 -7 15 -15 4 -13 1 -12 -20 2 -17 11 -24
23 -21 35 3 10 1 16 -4 12 -11 -7 -12 -44 -1 -44 5 0 20 -9 33 -21 19 -17 21
-22 9 -29 -10 -7 -11 -10 -2 -10 6 0 12 -3 12 -8 0 -10 -66 -45 -85 -45 -8 0
-12 -4 -9 -9 3 -5 15 -6 27 -3 19 5 19 4 -3 -9 -14 -9 -37 -15 -52 -16 -15 0
-30 -5 -34 -12 -5 -8 3 -9 28 -5 33 5 35 4 30 -16 -4 -18 -1 -17 21 9 14 17
33 31 41 31 20 0 20 -7 -1 -32 -13 -16 -15 -17 -10 -2 4 9 2 17 -3 17 -18 0
-11 -29 9 -40 21 -11 51 -4 51 12 0 6 11 8 25 6 27 -6 43 6 25 17 -13 8 26 65
43 64 8 0 8 -2 -1 -6 -10 -4 -9 -8 5 -19 17 -13 17 -13 1 -14 -10 0 -18 -4
-18 -10 0 -5 7 -7 15 -4 11 5 13 2 9 -9 -3 -9 -13 -14 -22 -11 -14 4 -13 3 1
-6 15 -9 22 -8 36 5 17 14 19 14 25 0 3 -9 2 -13 -4 -10 -6 3 -10 1 -10 -4 0
-6 20 -11 45 -11 44 0 45 -1 47 -32 1 -18 3 -42 4 -53 1 -11 2 -30 3 -42 1
-21 6 -23 61 -23 33 0 60 -4 60 -10 0 -6 37 -10 90 -10 73 0 90 3 90 15 0 8
-17 22 -37 30 -55 23 -70 40 -65 75 l4 30 378 0 c352 0 381 -1 421 -19 42 -19
43 -21 40 -60 -3 -48 6 -51 64 -21 22 11 46 20 55 20 9 0 21 5 27 11 20 20
247 -57 268 -91 3 -6 15 -10 26 -10 15 0 19 7 19 33 0 40 -9 53 -40 66 l-25
10 28 0 c36 1 97 27 112 47 10 14 15 14 32 3 18 -10 26 -9 53 8 20 13 28 23
21 27 -6 4 -11 3 -11 -2 0 -5 -9 -12 -20 -15 -11 -3 -18 -1 -15 3 3 5 1 11 -5
15 -5 3 -10 12 -10 18 0 7 5 4 11 -5 5 -10 14 -18 19 -18 17 0 11 23 -12 49
-13 14 -15 19 -5 12 12 -9 17 -10 17 -2 0 6 -10 16 -22 21 -17 6 -18 9 -6 9 9
1 19 -3 22 -8 3 -5 15 -7 26 -4 16 4 33 -7 65 -41 50 -51 59 -51 19 1 l-26 34
29 -7 c15 -4 32 -11 38 -15 15 -15 28 -10 21 7 -5 13 -1 15 19 12 14 -3 25 -1
25 4 0 5 -21 8 -47 7 -27 -1 -77 5 -113 14 l-65 14 48 8 c26 4 47 12 47 17 0
6 -17 8 -46 3 -40 -6 -45 -5 -33 8 8 8 17 11 20 6 3 -5 16 0 29 11 31 27 21
34 -23 15 -22 -9 -37 -11 -37 -5 0 18 47 33 84 26 38 -7 80 -50 72 -73 -7 -16
10 -17 20 -1 4 6 -10 27 -34 50 -32 29 -49 38 -77 38 -44 0 -75 -15 -75 -36 0
-8 -5 -12 -10 -9 -12 8 46 119 92 178 l30 38 24 -26 c25 -27 58 -32 98 -14 31
15 21 40 -23 59 -25 10 -35 9 -60 -3 -51 -25 -35 -2 41 63 51 43 80 60 100 60
36 0 78 40 77 72 -1 20 -2 21 -6 3 -11 -45 -83 -90 -83 -52 0 22 31 57 51 57
10 0 19 4 19 9 0 23 -59 -12 -71 -42 -7 -18 -22 -39 -33 -46 -87 -62 -216
-218 -258 -311 -15 -34 -20 -36 -38 -14 -11 13 -10 16 9 21 18 5 22 12 19 38
-2 34 15 65 38 65 18 0 26 33 15 64 -15 37 -20 32 -14 -14 5 -33 3 -40 -11
-40 -10 0 -15 4 -11 9 3 5 0 13 -6 17 -8 4 -9 3 -5 -4 3 -6 -3 -16 -14 -22
-11 -6 -20 -16 -19 -23 0 -9 2 -9 6 1 2 6 9 12 15 12 6 0 5 -6 -2 -15 -7 -9
-15 -13 -18 -10 -3 3 -14 -3 -25 -12 -13 -11 -8 1 12 30 18 26 31 55 29 64 -2
11 -13 1 -32 -30 -17 -26 -31 -46 -32 -44 -7 8 33 142 57 189 32 62 33 68 20
68 -5 0 -14 -15 -20 -32 -9 -26 -14 -30 -21 -18 -6 10 -11 -1 -16 -38 -7 -51
-24 -82 -24 -43 0 11 -5 23 -11 27 -8 5 -9 -3 -3 -27 11 -44 8 -94 -6 -116
-11 -17 -11 -17 -8 2 2 11 -5 29 -16 39 -16 16 -18 16 -13 3 3 -9 2 -19 -3
-22 -12 -8 -18 25 -9 57 5 20 4 25 -6 22 -8 -3 -11 -12 -9 -19 3 -8 1 -22 -4
-31 -7 -12 -6 -25 0 -40 7 -15 7 -28 -1 -40 -9 -16 -10 -13 -11 20 l0 39 -36
-6 c-20 -3 -39 -8 -41 -11 -2 -2 -9 -33 -16 -69 -9 -57 -8 -73 8 -121 27 -78
17 -87 -103 -89 -78 -2 -94 1 -119 19 -28 22 -30 33 -17 87 l6 27 -434 0 -434
0 -28 168 c-15 92 -31 171 -36 175 -4 5 -17 4 -28 -2 -11 -6 -50 -11 -87 -11
-57 0 -69 3 -89 25 -25 27 -29 52 -9 59 16 7 16 50 0 136 -11 59 -15 66 -47
82 -77 38 -162 12 -201 -60 -9 -18 -20 -29 -23 -24 -3 5 6 25 19 44 13 20 21
38 18 42 -8 8 -53 -58 -53 -78 0 -8 5 -18 10 -21 6 -3 10 -12 9 -18 0 -9 -2
-9 -6 1 -7 17 -20 15 -20 -3 0 -8 6 -15 13 -15 6 0 14 -11 16 -25 3 -14 1 -25
-3 -25 -5 0 -9 9 -9 20 0 11 -4 20 -9 20 -5 0 -7 -10 -5 -22 4 -21 4 -22 -5
-3 -43 91 43 212 159 223 56 5 114 -13 106 -34 -3 -7 1 -17 8 -23 11 -9 15 -3
19 27 9 53 55 95 104 96 34 1 40 5 59 44 13 26 24 38 27 30 4 -9 6 -7 6 5 1 9
7 17 14 17 8 0 22 9 31 19 17 18 17 19 -1 24 -10 3 18 4 62 4 l80 -2 3 -47 3
-48 50 0 49 0 0 50 c0 47 2 50 25 50 23 0 25 4 25 45 0 41 -2 45 -25 45 l-25
0 0 140 0 140 -49 0 -49 0 -93 -142 c-51 -79 -95 -153 -97 -166 -2 -13 -10
-21 -16 -19 -8 3 -12 141 -14 490 l-2 487 575 0 575 0 0 -705 0 -705 -28 0
c-38 0 -61 -27 -68 -81 -6 -49 20 -121 56 -154 20 -18 22 -18 98 5 92 28 88
26 71 42 -8 8 -49 19 -91 25 -43 6 -84 17 -92 26 -18 17 -22 62 -6 52 6 -4 7
-12 3 -18 -3 -7 3 -4 14 6 19 17 55 19 69 4 4 -4 16 -7 26 -7 11 0 26 -7 34
-15 9 -8 26 -15 40 -15 22 0 24 4 24 48 1 41 2 45 14 30 12 -16 14 -16 24 7 7
15 8 25 2 25 -6 0 -10 8 -10 18 0 9 -7 26 -15 36 -23 31 -19 89 8 114 35 33
99 30 126 -4 33 -42 26 -113 -12 -129 -12 -6 -23 -18 -25 -28 -3 -15 1 -14 31
5 67 45 65 148 -4 183 -40 21 -95 19 -119 -5 -20 -20 -20 -20 -20 3 0 29 35
47 91 47 32 0 47 -7 77 -36 20 -20 31 -33 25 -29 -7 3 -13 1 -13 -4 0 -6 7
-11 17 -11 9 0 13 -3 10 -7 -4 -3 -3 -11 2 -17 11 -14 2 -76 -11 -76 -5 0 -7
-4 -3 -9 3 -5 -5 -17 -17 -25 -12 -9 -18 -16 -13 -16 28 -1 -45 -29 -76 -30
-24 0 -39 -6 -43 -16 -8 -22 -8 -26 5 -19 18 12 61 -4 55 -20 -3 -9 1 -15 9
-15 8 0 15 6 15 13 0 8 9 22 20 32 15 13 28 16 57 10 21 -4 43 -11 49 -16 7
-6 17 -2 29 11 17 19 17 21 1 39 -25 27 -17 55 17 59 37 5 39 49 2 58 -32 8
-35 49 -5 59 39 12 17 61 -23 51 -34 -8 -56 17 -38 46 9 15 9 23 0 34 -15 18
-28 18 -50 -2 -24 -21 -60 -3 -56 29 2 17 -4 23 -25 25 -24 3 -28 0 -28 -21 0
-18 -6 -26 -25 -29 -53 -11 -53 -15 -57 656 l-4 617 -37 37 -37 37 -553 2
c-551 2 -552 2 -610 -21z m173 -891 c-6 -8 -9 -18 -6 -23 3 -5 -1 -9 -9 -9
-19 0 -19 6 2 29 19 21 31 25 13 3z m47 -1 c0 -7 -6 -10 -14 -7 -7 3 -13 -1
-13 -8 0 -7 -2 -10 -5 -7 -3 3 -3 12 0 20 7 18 32 20 32 2z m-87 -52 c0 -5 -7
-17 -15 -28 -14 -18 -14 -17 -4 9 12 27 19 34 19 19z m30 -137 l0 -55 -40 0
-40 0 36 55 c20 30 38 55 40 55 2 0 4 -25 4 -55z m-766 -433 c-1 -7 -2 -21 -2
-32 -3 -35 -22 -21 -22 16 0 24 4 34 13 32 6 -3 12 -10 11 -16z m316 3 c63
-33 81 -127 33 -171 -40 -37 -81 -56 -105 -48 -16 5 -18 8 -7 15 10 7 6 8 -12
4 -36 -9 -79 42 -79 91 0 95 88 151 170 109z m1549 -112 c10 -19 9 -22 -4 -17
-8 4 -15 15 -15 27 0 23 2 22 19 -10z m-1749 -75 c0 -10 2 -10 8 -1 5 8 14 4
29 -13 12 -13 17 -24 12 -24 -6 0 -8 -4 -5 -9 3 -4 18 -6 32 -3 22 4 26 2 21
-12 -4 -9 -2 -16 3 -16 6 0 10 5 10 10 0 6 10 10 22 10 l22 0 -21 -15 c-30
-21 -65 -11 -113 34 -40 38 -48 51 -30 51 6 0 10 -6 10 -12z m234 -54 c3 -8 2
-12 -4 -9 -6 3 -10 10 -10 16 0 14 7 11 14 -7z m-24 -4 c0 -5 -2 -10 -4 -10
-3 0 -8 5 -11 10 -3 6 -1 10 4 10 6 0 11 -4 11 -10z m-11 -24 c-12 -10 -60
-16 -54 -6 3 5 18 10 32 10 15 0 24 -2 22 -4z m1406 -26 c8 -13 -5 -13 -25 0
-13 8 -13 10 2 10 9 0 20 -4 23 -10z m555 -126 c13 -13 13 -16 0 -24 -23 -15
-66 -12 -81 6 -11 14 -10 18 6 30 21 15 51 10 75 -12z m-383 -76 c-3 -8 -6 -5
-6 6 -1 11 2 17 5 13 3 -3 4 -12 1 -19z m119 -65 c-14 -14 -23 4 -13 27 l10
25 5 -23 c2 -13 1 -26 -2 -29z m-1759 -15 c-3 -8 -6 -5 -6 6 -1 11 2 17 5 13
3 -3 4 -12 1 -19z m63 2 c0 -5 -5 -10 -11 -10 -5 0 -7 5 -4 10 3 6 8 10 11 10
2 0 4 -4 4 -10z m237 -32 c-3 -7 -5 -2 -5 12 0 14 2 19 5 13 2 -7 2 -19 0 -25z
m-383 -163 c-4 -8 -11 -15 -16 -15 -6 0 -5 6 2 15 7 8 14 15 16 15 2 0 1 -7
-2 -15z m361 -69 c4 -60 4 -61 -26 -46 -14 8 -19 21 -19 55 0 24 3 51 6 60 13
32 36 -9 39 -69z"/>
<path d="M966 1643 c15 -33 24 -41 24 -24 0 5 -9 19 -20 32 l-20 24 16 -32z"/>
<path d="M1035 1629 c-9 -27 10 -48 28 -30 10 10 9 11 -5 6 -12 -5 -18 -2 -18
8 0 8 5 17 12 19 9 3 9 6 1 11 -7 4 -14 -2 -18 -14z"/>
<path d="M1099 1603 c-12 -16 -12 -17 2 -6 12 10 18 10 29 0 12 -10 12 -9 1 6
-7 9 -15 17 -16 17 -1 0 -9 -8 -16 -17z"/>
<path d="M1004 1602 c3 -5 0 -13 -6 -15 -9 -4 -10 -6 -1 -6 17 -1 25 16 12 25
-7 4 -9 3 -5 -4z"/>
<path d="M970 1572 c0 -19 33 -23 49 -5 15 16 15 16 -1 4 -15 -11 -21 -11 -33
-1 -9 7 -15 8 -15 2z"/>
<path d="M910 1531 c0 -5 7 -12 16 -15 14 -5 15 -4 4 9 -14 17 -20 19 -20 6z"/>
<path d="M1835 2378 c-47 -25 -74 -62 -86 -113 -16 -72 -8 -231 15 -273 50
-96 199 -107 270 -19 29 37 31 43 35 149 5 156 -16 215 -91 254 -32 17 -115
18 -143 2z m173 -41 c12 -11 22 -25 22 -31 0 -6 -5 -3 -11 7 -6 9 -15 14 -21
11 -7 -4 -8 -2 -4 4 4 7 -6 18 -26 27 -23 10 -25 13 -8 9 14 -4 35 -16 48 -27z
m-178 10 c-14 -8 -24 -19 -22 -26 1 -7 -2 -9 -8 -6 -15 9 17 45 39 45 10 0 7
-5 -9 -13z m86 -16 c-8 -12 -46 -21 -46 -11 0 5 10 11 23 13 12 2 23 5 25 6 2
0 1 -3 -2 -8z m43 -20 c7 -5 12 -13 10 -18 -2 -5 -12 -1 -21 9 -19 19 -13 24
11 9z m-24 -15 c16 -11 20 -30 23 -107 6 -143 -18 -204 -72 -183 -24 9 -31 47
-31 167 0 96 2 110 19 123 25 18 37 18 61 0z m113 -31 c-3 -3 -9 2 -12 12 -6
14 -5 15 5 6 7 -7 10 -15 7 -18z"/>
<path d="M2276 2342 c-16 -26 -60 -95 -98 -153 -47 -74 -68 -115 -68 -137 l0
-32 95 0 95 0 0 -50 0 -50 55 0 55 0 0 50 c0 47 2 50 26 50 23 0 25 3 22 43
-2 35 -7 43 -25 45 -23 3 -23 6 -23 143 l0 139 -52 0 c-52 -1 -53 -1 -82 -48z
m34 13 c-6 -8 -8 -20 -4 -26 4 -8 3 -9 -4 -5 -7 4 -12 2 -12 -5 0 -7 -3 -9 -6
-6 -7 7 22 57 32 57 4 0 1 -7 -6 -15z m-30 -59 c0 -2 -8 -10 -17 -17 -16 -13
-17 -12 -4 4 13 16 21 21 21 13z m11 -23 c-12 -20 -14 -14 -5 12 4 9 9 14 11
11 3 -2 0 -13 -6 -23z m11 -111 c-4 -49 -5 -50 -38 -54 -27 -3 -33 -1 -29 11
10 25 60 99 65 96 3 -2 3 -26 2 -53z"/>
<path d="M960 2245 c0 -17 -25 -21 -35 -5 -10 16 -35 -1 -32 -23 1 -17 -3 -21
-20 -20 -22 3 -39 -22 -23 -32 16 -10 12 -35 -5 -35 -8 0 -15 -7 -15 -15 0 -8
7 -15 15 -15 8 0 15 -9 15 -20 0 -11 -4 -20 -10 -20 -5 0 -7 -7 -3 -15 3 -9
15 -15 27 -13 16 2 21 -2 21 -21 0 -26 19 -39 30 -22 9 16 35 13 35 -4 0 -8 6
-15 14 -15 8 0 16 7 20 15 6 16 36 21 36 5 0 -5 7 -7 15 -4 9 4 15 11 14 18
-4 29 2 37 20 31 11 -3 23 0 27 7 4 6 2 14 -4 16 -17 5 -15 32 3 38 8 4 15 12
15 20 0 8 -7 14 -15 14 -17 0 -21 25 -5 35 16 10 -1 35 -23 32 -17 -1 -21 3
-20 20 1 11 -4 24 -12 27 -8 3 -15 1 -15 -4 0 -6 -9 -10 -20 -10 -11 0 -20 7
-20 15 0 8 -7 15 -15 15 -8 0 -15 -7 -15 -15z m64 -76 c54 -42 23 -129 -47
-129 -70 0 -102 76 -52 125 30 30 64 32 99 4z"/>
<path d="M936 2159 c-50 -39 -24 -109 42 -109 38 0 62 23 62 60 0 32 -33 70
-61 70 -9 0 -28 -9 -43 -21z m78 -15 c22 -21 20 -47 -4 -69 -44 -40 -107 25
-69 71 15 19 54 18 73 -2z"/>
<path d="M2820 2172 c0 -7 -5 -10 -10 -7 -11 7 -40 -18 -40 -34 0 -6 -6 -11
-12 -11 -10 0 -9 -3 1 -9 7 -5 10 -14 7 -20 -4 -6 -2 -11 3 -11 6 0 11 -7 11
-16 0 -8 5 -12 11 -8 6 3 15 0 20 -7 7 -12 9 -12 9 0 0 7 6 11 15 7 8 -3 15
-1 15 4 0 6 7 10 15 10 9 0 12 6 9 15 -4 8 -2 15 4 15 6 0 8 9 5 20 -3 11 -9
20 -14 20 -5 0 -9 7 -9 16 0 8 -5 12 -11 8 -6 -3 -15 0 -20 7 -7 11 -9 11 -9
1z m21 -48 c11 -14 10 -18 -5 -30 -22 -16 -36 -10 -36 15 0 33 20 40 41 15z"/>
<path d="M740 2082 c0 -9 -7 -11 -22 -7 -17 6 -20 4 -15 -9 4 -10 1 -16 -9
-16 -9 0 -12 -5 -8 -11 3 -6 0 -16 -7 -21 -11 -7 -11 -11 -1 -15 6 -2 10 -9 6
-14 -7 -12 23 -42 35 -34 5 3 13 1 16 -5 5 -8 11 -8 19 -1 7 6 16 8 19 4 4 -3
7 -1 7 5 0 7 7 12 16 12 10 0 14 6 11 14 -3 8 -1 17 6 20 9 3 8 7 -2 14 -7 5
-10 15 -7 21 4 6 0 11 -8 11 -9 0 -16 7 -16 16 0 8 -5 12 -11 8 -6 -3 -15 0
-20 7 -7 11 -9 11 -9 1z m28 -65 c4 -20 -25 -34 -40 -19 -15 15 -1 44 19 40
10 -2 19 -11 21 -21z"/>
<path d="M3062 2045 c-8 -16 -13 -17 -26 -6 -16 13 -17 13 -20 -11 0 -7 -8
-14 -16 -14 -8 -1 -19 -2 -24 -3 -5 0 -3 -8 4 -16 10 -12 9 -16 -4 -21 -19 -7
-21 -31 -3 -37 9 -3 9 -7 0 -19 -15 -17 -7 -29 13 -21 10 4 14 -3 14 -23 0
-22 3 -25 12 -16 16 16 28 15 28 -3 0 -18 27 -20 33 -2 3 9 7 9 20 -2 17 -13
18 -13 21 12 0 6 11 13 24 15 17 3 21 8 17 23 -4 11 -2 19 4 19 15 0 14 27 -1
33 -10 3 -10 8 1 21 13 15 12 18 -7 23 -13 3 -22 13 -22 24 0 12 -5 16 -15 12
-9 -3 -22 2 -29 12 -13 18 -14 18 -24 0z m-17 -54 c-3 -5 7 -11 22 -13 24 -3
28 -8 28 -33 0 -27 -3 -30 -30 -30 -27 0 -30 3 -30 33 0 17 -3 32 -7 32 -5 0
-8 -5 -8 -12 0 -6 -3 -8 -7 -4 -5 4 1 14 11 22 23 16 30 18 21 5z m42 3 c-3
-3 -12 -4 -19 -1 -8 3 -5 6 6 6 11 1 17 -2 13 -5z m-70 -66 c-3 -8 -6 -5 -6 6
-1 11 2 17 5 13 3 -3 4 -12 1 -19z m50 -34 c-3 -3 -12 -4 -19 -1 -8 3 -5 6 6
6 11 1 17 -2 13 -5z"/>
<path d="M285 1848 c-33 -17 -45 -40 -45 -80 0 -57 34 -88 97 -88 34 0 64 -9
102 -30 30 -17 56 -28 58 -26 3 2 -2 18 -11 34 -14 27 -14 31 0 43 41 34 36
112 -9 144 -26 18 -161 20 -192 3z m104 -78 c-2 -49 -7 -80 -13 -80 -7 0 -12
32 -14 80 -3 68 -1 80 13 80 13 0 16 -12 14 -80z"/>
<path d="M2654 1824 c-10 -8 -13 -12 -6 -9 8 4 26 11 40 15 22 7 23 8 6 9 -11
1 -29 -6 -40 -15z"/>
<path d="M2749 1824 c19 -8 40 -18 46 -22 6 -4 -1 3 -15 15 -14 13 -34 23 -45
23 -14 -1 -10 -5 14 -16z"/>
<path d="M978 1784 c-21 -9 -38 -20 -38 -25 0 -13 7 -11 36 7 19 13 40 15 90
11 40 -3 62 -1 57 4 -18 18 -106 20 -145 3z"/>
<path d="M472 1558 c3 -28 7 -34 31 -36 27 -3 28 -1 25 30 -3 28 -7 34 -31 36
-27 3 -28 1 -25 -30z"/>
<path d="M2978 1495 c-12 -27 2 -75 22 -75 6 0 16 11 22 25 12 27 -2 75 -22
75 -6 0 -16 -11 -22 -25z m35 -7 c3 -12 1 -30 -5 -41 -9 -18 -11 -18 -19 -4
-10 17 -2 67 11 67 4 0 10 -10 13 -22z"/>
<path d="M2688 1502 c-16 -2 -28 -8 -28 -13 0 -13 47 -11 55 2 9 14 5 15 -27
11z"/>
<path d="M2870 1465 c-14 -38 -5 -77 26 -106 31 -29 48 -15 47 37 -1 27 -9 45
-32 67 l-30 31 -11 -29z m44 -17 c17 -24 22 -83 7 -92 -21 -14 -57 59 -46 94
8 26 20 25 39 -2z"/>
<path d="M3053 1409 c-29 -11 -29 -25 -2 -39 24 -14 72 -5 67 12 -8 22 -42 36
-65 27z m52 -18 c7 -12 -31 -25 -45 -16 -5 3 -10 10 -10 16 0 12 47 12 55 0z"/>
<path d="M2577 1393 c-4 -3 -7 -21 -7 -40 0 -28 3 -33 25 -33 26 0 45 25 45
59 0 16 -6 21 -28 21 -16 0 -32 -3 -35 -7z"/>
<path d="M2690 1311 c0 -6 4 -13 10 -16 6 -3 7 1 4 9 -7 18 -14 21 -14 7z"/>
<path d="M796 1264 c-8 -22 -4 -25 11 -9 7 8 9 16 4 19 -5 3 -12 -1 -15 -10z"/>
<path d="M743 1249 c-7 -7 -46 -10 -107 -7 l-96 3 0 -37 c0 -21 -4 -38 -10
-38 -5 0 -10 7 -10 15 0 20 -20 19 -37 -2 -10 -13 -16 -15 -19 -5 -8 19 -35
15 -32 -5 2 -12 -4 -19 -20 -21 -17 -3 -21 -8 -16 -26 4 -18 1 -25 -15 -29
-24 -6 -28 -27 -6 -27 18 0 20 -27 3 -32 -18 -6 0 -28 23 -28 16 0 19 -5 14
-19 -7 -22 14 -40 25 -21 9 15 30 4 30 -16 0 -19 17 -18 29 4 27 48 60 -71 61
-219 0 -61 -3 -68 -36 -107 -19 -23 -33 -46 -29 -52 13 -20 59 -10 82 18 19
23 24 25 33 12 8 -13 10 -12 10 5 8 403 12 435 41 325 9 -36 34 -105 55 -153
l38 -89 -18 -61 c-9 -34 -20 -70 -23 -80 -5 -16 -1 -18 28 -15 28 2 36 8 45
36 5 18 13 29 17 26 12 -13 8 91 -8 170 -7 42 -23 97 -35 122 -24 55 -25 107
-4 189 22 88 27 123 20 151 -7 26 -16 30 -33 13z m-223 -120 c12 -8 11 -9 -6
-4 -32 9 -71 -13 -77 -43 -4 -19 2 -33 24 -53 24 -22 26 -26 9 -22 -26 7 -52
55 -43 80 8 23 43 53 63 53 8 0 22 -5 30 -11z m4 -25 c30 -30 13 -74 -29 -74
-42 0 -59 44 -29 74 8 9 22 16 29 16 7 0 21 -7 29 -16z"/>
<path d="M876 1247 c3 -10 9 -15 12 -12 3 3 0 11 -7 18 -10 9 -11 8 -5 -6z"/>
<path d="M2899 1234 c-12 -14 -9 -20 20 -46 28 -25 40 -29 69 -24 54 8 60 21
27 56 -33 35 -93 42 -116 14z m107 -18 l28 -23 -23 -12 c-42 -23 -111 9 -97
44 8 23 61 18 92 -9z"/>
<path d="M876 1205 c-3 -9 -11 -13 -17 -9 -8 5 -9 3 -4 -5 6 -10 11 -9 23 3 9
8 13 18 10 21 -3 3 -8 -1 -12 -10z"/>
<path d="M800 1206 c0 -3 9 -10 20 -16 11 -6 20 -8 20 -6 0 3 -9 10 -20 16
-11 6 -20 8 -20 6z"/>
<path d="M826 1143 c-6 -14 -5 -15 5 -6 7 7 10 15 7 18 -3 3 -9 -2 -12 -12z"/>
<path d="M880 1135 c13 -14 26 -25 28 -25 3 0 -5 11 -18 25 -13 14 -26 25 -28
25 -3 0 5 -11 18 -25z"/>
<path d="M862 1119 c10 -5 15 -17 12 -27 -5 -14 -4 -14 4 -2 12 16 -2 40 -22
40 -6 0 -3 -5 6 -11z"/>
<path d="M2945 1100 c10 -11 20 -20 23 -20 3 0 -3 9 -13 20 -10 11 -20 20 -23
20 -3 0 3 -9 13 -20z"/>
<path d="M810 1079 c0 -5 11 -9 25 -9 14 0 25 2 25 4 0 2 -11 6 -25 8 -14 3
-25 1 -25 -3z"/>
<path d="M857 1058 c-15 -11 -12 -13 20 -14 21 -1 27 1 14 3 -19 4 -21 7 -10
14 8 5 9 9 3 9 -5 0 -18 -6 -27 -12z"/>
<path d="M2857 996 c-3 -8 4 -18 17 -24 17 -8 23 -7 23 3 0 8 -7 11 -15 7 -10
-3 -13 -1 -8 6 3 6 2 13 -3 16 -5 3 -11 0 -14 -8z"/>
<path d="M3370 777 c0 -5 -7 -6 -17 -3 -10 4 -24 -2 -37 -16 -25 -27 -31 -58
-11 -58 8 0 15 -7 15 -16 0 -12 6 -15 25 -10 14 4 25 2 25 -3 0 -10 80 -9 98
2 6 5 16 6 22 2 13 -8 50 31 50 55 0 11 -6 20 -14 20 -8 0 -17 7 -20 16 -4 10
-13 13 -26 9 -11 -3 -20 -2 -20 3 0 5 -20 9 -45 9 -25 0 -45 -5 -45 -10z m-6
-43 c3 -8 2 -12 -4 -9 -6 3 -10 10 -10 16 0 14 7 11 14 -7z m86 -10 c0 -2 -17
-4 -37 -3 -29 0 -33 2 -18 8 18 7 55 4 55 -5z"/>
<path d="M1470 667 c0 -5 -9 -7 -21 -4 -12 3 -22 0 -26 -9 -3 -8 -11 -14 -19
-14 -20 0 -18 -50 4 -66 9 -7 27 -14 39 -14 12 0 23 -6 26 -12 3 -10 7 -10 20
1 14 11 20 11 32 1 12 -10 19 -10 27 -2 7 7 22 12 35 12 13 0 23 5 23 10 0 6
7 10 15 10 10 0 15 10 15 30 0 19 -5 30 -14 30 -8 0 -16 6 -19 14 -4 9 -14 12
-26 9 -12 -3 -21 -1 -21 4 0 5 -20 10 -45 10 -25 0 -45 -5 -45 -10z m-13 -49
c-3 -8 -6 -5 -6 6 -1 11 2 17 5 13 3 -3 4 -12 1 -19z m120 0 c-3 -8 -6 -5 -6
6 -1 11 2 17 5 13 3 -3 4 -12 1 -19z m-27 -6 c0 -12 -58 -13 -65 -1 -4 5 10 9
29 9 20 0 36 -4 36 -8z"/>
<path d="M1740 548 c0 -5 -10 -9 -22 -8 -38 3 -48 1 -48 -14 0 -7 -9 -16 -20
-19 -25 -6 -29 -67 -5 -67 8 0 19 -9 25 -20 8 -15 17 -19 35 -14 14 3 25 2 25
-4 0 -13 38 -23 46 -11 7 12 44 12 44 0 0 -13 30 -7 39 8 5 8 18 10 34 6 21
-6 29 -3 34 11 5 11 15 19 23 19 9 0 15 10 16 25 1 35 -6 50 -22 50 -8 0 -14
7 -14 15 0 10 -11 15 -35 15 -19 0 -35 4 -35 8 0 5 -27 9 -60 9 -33 0 -60 -4
-60 -9z m83 -25 c-7 -2 -19 -2 -25 0 -7 3 -2 5 12 5 14 0 19 -2 13 -5z m-93
-18 c-10 -12 -10 -18 1 -32 12 -17 12 -17 -4 -2 -18 16 -14 49 5 49 6 0 5 -6
-2 -15z m151 -28 c-8 -10 -28 -14 -67 -12 -31 2 -58 6 -61 9 -12 12 53 18 81
8 37 -14 55 -1 36 25 -13 17 -13 17 5 1 14 -13 16 -20 6 -31z"/>
</g>
</svg>
